<?xml version="1.0" encoding="utf-8"?>
<!-- Generator: Adobe Illustrator 24.1.0, SVG Export Plug-In . SVG Version: 6.00 Build 0)  -->
<svg version="1.1" id="Capa_1" xmlns="http://www.w3.org/2000/svg" xmlns:xlink="http://www.w3.org/1999/xlink" x="0px" y="0px"
	 viewBox="0 0 95.4 67" style="enable-background:new 0 0 95.4 67;" xml:space="preserve">
<style type="text/css">
	.st0{fill-rule:evenodd;clip-rule:evenodd;fill:#164194;}
	.st1{fill:#164194;}
	.st2{fill:#FFD100;}
	.st3{clip-path:url(#SVGID_2_);}
	.st4{filter:url(#Adobe_OpacityMaskFilter);}
	.st5{clip-path:url(#SVGID_4_);fill:url(#SVGID_6_);}
	.st6{clip-path:url(#SVGID_4_);mask:url(#SVGID_5_);fill:url(#SVGID_7_);}
</style>
<g>
	<path class="st0" d="M11.9,0.6H9c-4.9,0-8.8,3.9-8.8,8.8v3.4v42.8h83.5h2.7c4.9,0,8.8-3.9,8.8-8.8V0.6H11.9z"/>
	<path class="st1" d="M2.5,64.9c-0.1-0.1-0.2-0.2-0.3-0.2c-0.1-0.1-0.3-0.1-0.5-0.2c-0.2-0.1-0.3-0.1-0.4-0.2
		c-0.1,0-0.2-0.1-0.2-0.1C1,64.1,0.9,64,0.9,64c0-0.1,0-0.1,0-0.2c0-0.1,0.1-0.2,0.2-0.3c0.1-0.1,0.3-0.1,0.5-0.1
		c0.2,0,0.3,0,0.5,0.1c0.2,0,0.3,0.1,0.4,0.2l0.2-0.4c-0.2-0.1-0.3-0.1-0.5-0.2C2,63,1.8,63,1.6,63c-0.2,0-0.4,0-0.5,0.1
		c-0.2,0-0.3,0.1-0.4,0.2c-0.1,0.1-0.2,0.2-0.2,0.3c-0.1,0.1-0.1,0.2-0.1,0.3c0,0.1,0,0.2,0.1,0.3c0,0.1,0.1,0.2,0.2,0.3
		c0.1,0.1,0.2,0.2,0.3,0.2c0.1,0.1,0.3,0.1,0.5,0.2C1.6,64.9,1.7,65,1.8,65c0.1,0.1,0.2,0.1,0.3,0.2c0.1,0.1,0.1,0.1,0.1,0.2
		c0,0.1,0,0.1,0,0.2c0,0.2-0.1,0.3-0.2,0.4C1.9,66,1.7,66,1.4,66C1.2,66,1,66,0.9,66c-0.2-0.1-0.3-0.1-0.4-0.2l-0.3,0.4
		c0.1,0.1,0.3,0.2,0.5,0.2c0.2,0.1,0.4,0.1,0.7,0.1c0.2,0,0.4,0,0.5-0.1c0.2,0,0.3-0.1,0.4-0.2c0.1-0.1,0.2-0.2,0.3-0.3
		c0.1-0.1,0.1-0.3,0.1-0.4c0-0.1,0-0.2-0.1-0.3C2.7,65.1,2.6,65,2.5,64.9"/>
	<path class="st1" d="M5.6,63l-1.4,3.2l0.4,0.2L5,65.5h1.7l0.4,1l0.5-0.2L6.1,63H5.6z M5.1,65.1l0.7-1.6l0.7,1.6H5.1z"/>
	<path class="st1" d="M10.9,64.6c0.2-0.1,0.3-0.2,0.4-0.3c0.1-0.1,0.2-0.3,0.2-0.4c0-0.3-0.1-0.5-0.4-0.6c-0.2-0.2-0.6-0.2-1-0.2
		c-0.2,0-0.4,0-0.6,0c-0.2,0-0.3,0-0.4,0v3.3c0.1,0,0.3,0,0.4,0c0.2,0,0.4,0,0.6,0c0.5,0,0.9-0.1,1.1-0.3c0.3-0.2,0.4-0.4,0.4-0.7
		c0-0.2-0.1-0.4-0.2-0.5C11.4,64.8,11.2,64.7,10.9,64.6 M9.6,63.4c0.1,0,0.2,0,0.3,0c0.1,0,0.2,0,0.3,0c0.3,0,0.5,0,0.7,0.1
		c0.2,0.1,0.2,0.2,0.2,0.4c0,0.2-0.1,0.3-0.2,0.4c-0.2,0.1-0.4,0.2-0.7,0.2H9.6V63.4z M10.9,65.9C10.7,66,10.5,66,10.2,66
		c-0.2,0-0.4,0-0.6,0v-1.2h0.6c0.3,0,0.6,0.1,0.7,0.2c0.2,0.1,0.3,0.3,0.3,0.5C11.2,65.6,11.1,65.8,10.9,65.9"/>
	<path class="st1" d="M16.2,63.5c-0.1-0.2-0.3-0.3-0.5-0.4C15.4,63,15.2,63,14.9,63c-0.3,0-0.5,0-0.7,0.1c-0.2,0.1-0.4,0.2-0.5,0.4
		c-0.1,0.2-0.3,0.3-0.3,0.5c-0.1,0.2-0.1,0.4-0.1,0.7c0,0.2,0,0.5,0.1,0.7c0.1,0.2,0.2,0.4,0.3,0.5c0.1,0.2,0.3,0.3,0.5,0.4
		c0.2,0.1,0.5,0.1,0.7,0.1c0.3,0,0.5,0,0.7-0.1c0.2-0.1,0.4-0.2,0.5-0.4c0.1-0.2,0.3-0.3,0.3-0.5c0.1-0.2,0.1-0.4,0.1-0.7
		c0-0.2,0-0.5-0.1-0.7C16.4,63.8,16.3,63.7,16.2,63.5 M16.1,65.2c-0.1,0.2-0.1,0.3-0.2,0.4c-0.1,0.1-0.2,0.2-0.4,0.3
		C15.3,66,15.1,66,14.9,66c-0.2,0-0.4,0-0.5-0.1c-0.2-0.1-0.3-0.2-0.4-0.3c-0.1-0.1-0.2-0.3-0.2-0.4c-0.1-0.2-0.1-0.3-0.1-0.5
		c0-0.2,0-0.4,0.1-0.5c0.1-0.2,0.1-0.3,0.2-0.4c0.1-0.1,0.2-0.2,0.4-0.3c0.1-0.1,0.3-0.1,0.5-0.1c0.2,0,0.4,0,0.5,0.1
		c0.1,0.1,0.3,0.2,0.4,0.3c0.1,0.1,0.2,0.3,0.2,0.4c0.1,0.2,0.1,0.3,0.1,0.5C16.1,64.9,16.1,65.1,16.1,65.2"/>
	<path class="st1" d="M20.5,65.2c0-0.1-0.1-0.1-0.2-0.2c-0.1-0.1-0.1-0.1-0.2-0.1c-0.1,0-0.1-0.1-0.2-0.1c0.3-0.1,0.5-0.2,0.6-0.3
		c0.1-0.1,0.2-0.3,0.2-0.6c0-0.1,0-0.3-0.1-0.4c-0.1-0.1-0.1-0.2-0.3-0.3c-0.1-0.1-0.2-0.1-0.4-0.2c-0.2,0-0.4-0.1-0.6-0.1
		c-0.2,0-0.4,0-0.5,0c-0.2,0-0.3,0-0.5,0v3.3h0.5v-1.5H19c0.3,0,0.5,0,0.7,0.1c0.2,0.1,0.3,0.3,0.4,0.5l0.4,0.9l0.5-0.2l-0.4-0.8
		C20.6,65.4,20.5,65.3,20.5,65.2 M19.5,64.5h-0.6v-1.1c0.1,0,0.2,0,0.3,0c0.1,0,0.2,0,0.3,0c0.3,0,0.5,0.1,0.6,0.2
		c0.1,0.1,0.2,0.2,0.2,0.4c0,0.2-0.1,0.3-0.2,0.4C19.9,64.5,19.7,64.5,19.5,64.5"/>
	<polygon class="st1" points="22.7,66.4 24.9,66.4 24.9,66 23.2,66 23.2,64.8 24.7,64.8 24.7,64.5 23.2,64.5 23.2,63.4 24.9,63.4 
		24.9,63 22.7,63 	"/>
	<path class="st1" d="M28.7,64.9c-0.1-0.1-0.2-0.2-0.3-0.2c-0.1-0.1-0.3-0.1-0.5-0.2c-0.2-0.1-0.3-0.1-0.4-0.2
		c-0.1,0-0.2-0.1-0.2-0.1c-0.1,0-0.1-0.1-0.1-0.1c0-0.1,0-0.1,0-0.2c0-0.1,0.1-0.2,0.2-0.3c0.1-0.1,0.3-0.1,0.5-0.1
		c0.2,0,0.3,0,0.5,0.1c0.2,0,0.3,0.1,0.4,0.2l0.2-0.4c-0.2-0.1-0.3-0.1-0.5-0.2C28.2,63,28,63,27.8,63c-0.2,0-0.4,0-0.5,0.1
		c-0.2,0-0.3,0.1-0.4,0.2c-0.1,0.1-0.2,0.2-0.2,0.3c-0.1,0.1-0.1,0.2-0.1,0.3c0,0.1,0,0.2,0.1,0.3c0,0.1,0.1,0.2,0.2,0.3
		c0.1,0.1,0.2,0.2,0.3,0.2c0.1,0.1,0.3,0.1,0.5,0.2c0.2,0.1,0.3,0.1,0.4,0.2c0.1,0.1,0.2,0.1,0.3,0.2c0.1,0.1,0.1,0.1,0.1,0.2
		c0,0.1,0,0.1,0,0.2c0,0.2-0.1,0.3-0.2,0.4C28,66,27.8,66,27.6,66c-0.2,0-0.4,0-0.5-0.1c-0.2-0.1-0.3-0.1-0.4-0.2l-0.3,0.4
		c0.1,0.1,0.3,0.2,0.5,0.2c0.2,0.1,0.4,0.1,0.7,0.1c0.2,0,0.4,0,0.5-0.1c0.2,0,0.3-0.1,0.4-0.2c0.1-0.1,0.2-0.2,0.3-0.3
		c0.1-0.1,0.1-0.3,0.1-0.4c0-0.1,0-0.2-0.1-0.3C28.8,65.1,28.7,65,28.7,64.9"/>
	<path class="st1" d="M36.4,65.4c0.1-0.2,0.1-0.4,0.1-0.6c0-0.2,0-0.5-0.1-0.7c-0.1-0.2-0.2-0.4-0.3-0.5c-0.1-0.2-0.3-0.3-0.5-0.4
		C35.3,63,35.1,63,34.8,63c-0.3,0-0.5,0-0.7,0.1c-0.2,0.1-0.4,0.2-0.5,0.4c-0.1,0.2-0.3,0.3-0.3,0.5c-0.1,0.2-0.1,0.4-0.1,0.7
		c0,0.2,0,0.5,0.1,0.7c0.1,0.2,0.2,0.4,0.3,0.5c0.1,0.2,0.3,0.3,0.5,0.4c0.2,0.1,0.4,0.1,0.7,0.1c0.2,0,0.4,0,0.6-0.1
		c0.2-0.1,0.3-0.1,0.5-0.2l0.5,0.3l0.2-0.4l-0.5-0.2C36.2,65.7,36.3,65.5,36.4,65.4 M35.9,65.2c0,0.1-0.1,0.3-0.2,0.4l-0.5-0.3
		l-0.2,0.4l0.4,0.2c-0.1,0-0.2,0.1-0.3,0.1c-0.1,0-0.2,0-0.4,0c-0.2,0-0.4,0-0.5-0.1c-0.1-0.1-0.3-0.2-0.4-0.3
		c-0.1-0.1-0.2-0.3-0.2-0.4c-0.1-0.2-0.1-0.3-0.1-0.5c0-0.2,0-0.4,0.1-0.5c0.1-0.2,0.1-0.3,0.2-0.4c0.1-0.1,0.2-0.2,0.4-0.3
		c0.1-0.1,0.3-0.1,0.5-0.1c0.2,0,0.4,0,0.5,0.1c0.1,0.1,0.3,0.2,0.4,0.3c0.1,0.1,0.2,0.3,0.2,0.4c0.1,0.2,0.1,0.3,0.1,0.5
		C36,64.9,36,65.1,35.9,65.2"/>
	<path class="st1" d="M40.5,65c0,0.3-0.1,0.6-0.2,0.7C40.1,66,39.9,66,39.6,66c-0.3,0-0.5-0.1-0.6-0.3c-0.1-0.2-0.2-0.4-0.2-0.7v-2
		h-0.5v2.1c0,0.4,0.1,0.8,0.4,1c0.2,0.2,0.6,0.3,1,0.3c0.2,0,0.4,0,0.6-0.1c0.2-0.1,0.3-0.1,0.4-0.3c0.1-0.1,0.2-0.3,0.3-0.4
		c0.1-0.2,0.1-0.4,0.1-0.6v-2h-0.5V65z"/>
	<polygon class="st1" points="42.9,66.4 45.1,66.4 45.1,66 43.4,66 43.4,64.8 44.8,64.8 44.8,64.5 43.4,64.5 43.4,63.4 45.1,63.4 
		45.1,63 42.9,63 	"/>
	<path class="st1" d="M51.5,65.2c0-0.1-0.1-0.1-0.2-0.2c-0.1-0.1-0.1-0.1-0.2-0.1c-0.1,0-0.1-0.1-0.2-0.1c0.3-0.1,0.5-0.2,0.7-0.3
		c0.1-0.1,0.2-0.3,0.2-0.6c0-0.1,0-0.3-0.1-0.4c-0.1-0.1-0.1-0.2-0.3-0.3c-0.1-0.1-0.2-0.1-0.4-0.2C51,63,50.8,63,50.6,63
		c-0.2,0-0.4,0-0.5,0c-0.2,0-0.3,0-0.5,0v3.3H50v-1.5h0.1c0.3,0,0.5,0,0.7,0.1c0.2,0.1,0.3,0.3,0.4,0.5l0.5,0.9l0.5-0.2l-0.4-0.8
		C51.6,65.4,51.6,65.3,51.5,65.2 M50.6,64.5H50v-1.1c0.1,0,0.2,0,0.3,0c0.1,0,0.2,0,0.3,0c0.3,0,0.5,0.1,0.6,0.2
		c0.1,0.1,0.2,0.2,0.2,0.4c0,0.2-0.1,0.3-0.2,0.4C51,64.5,50.8,64.5,50.6,64.5"/>
	<polygon class="st1" points="53.8,66.4 56,66.4 56,66 54.3,66 54.3,64.8 55.7,64.8 55.7,64.5 54.3,64.5 54.3,63.4 56,63.4 56,63 
		53.8,63 	"/>
	<path class="st1" d="M59.6,66c-0.1,0-0.3,0.1-0.4,0.1c-0.2,0-0.3,0-0.5-0.1c-0.1-0.1-0.3-0.2-0.4-0.3c-0.1-0.1-0.2-0.3-0.2-0.4
		c-0.1-0.2-0.1-0.3-0.1-0.5c0-0.2,0-0.4,0.1-0.6c0.1-0.2,0.1-0.3,0.2-0.4c0.1-0.1,0.2-0.2,0.4-0.3c0.1-0.1,0.3-0.1,0.5-0.1
		c0.2,0,0.3,0,0.4,0c0.1,0,0.2,0.1,0.3,0.1l0.2-0.4c-0.1-0.1-0.3-0.1-0.4-0.1c-0.1,0-0.3,0-0.5,0c-0.3,0-0.5,0-0.7,0.1
		c-0.2,0.1-0.4,0.2-0.5,0.4c-0.1,0.2-0.3,0.3-0.3,0.6c-0.1,0.2-0.1,0.4-0.1,0.7c0,0.3,0,0.5,0.1,0.7c0.1,0.2,0.2,0.4,0.3,0.5
		c0.1,0.1,0.3,0.3,0.5,0.3c0.2,0.1,0.4,0.1,0.6,0.1c0.2,0,0.4,0,0.6-0.1c0.2,0,0.3-0.1,0.4-0.2L60,65.8C59.9,65.9,59.7,66,59.6,66"
		/>
	<path class="st1" d="M64.5,63.5c-0.1-0.2-0.3-0.3-0.5-0.4C63.7,63,63.5,63,63.2,63c-0.3,0-0.5,0-0.7,0.1c-0.2,0.1-0.4,0.2-0.5,0.4
		c-0.1,0.2-0.3,0.3-0.3,0.5c-0.1,0.2-0.1,0.4-0.1,0.7c0,0.2,0,0.5,0.1,0.7c0.1,0.2,0.2,0.4,0.3,0.5c0.1,0.2,0.3,0.3,0.5,0.4
		c0.2,0.1,0.5,0.1,0.7,0.1c0.3,0,0.5,0,0.7-0.1c0.2-0.1,0.4-0.2,0.5-0.4c0.1-0.2,0.3-0.3,0.3-0.5c0.1-0.2,0.1-0.4,0.1-0.7
		c0-0.2,0-0.5-0.1-0.7C64.7,63.8,64.6,63.7,64.5,63.5 M64.3,65.2c-0.1,0.2-0.1,0.3-0.2,0.4c-0.1,0.1-0.2,0.2-0.4,0.3
		C63.6,66,63.4,66,63.2,66c-0.2,0-0.4,0-0.5-0.1c-0.1-0.1-0.3-0.2-0.4-0.3c-0.1-0.1-0.2-0.3-0.2-0.4C62,65,62,64.9,62,64.7
		c0-0.2,0-0.4,0.1-0.5c0.1-0.2,0.1-0.3,0.2-0.4c0.1-0.1,0.2-0.2,0.4-0.3c0.2-0.1,0.3-0.1,0.5-0.1c0.2,0,0.4,0,0.5,0.1
		c0.1,0.1,0.3,0.2,0.4,0.3c0.1,0.1,0.2,0.3,0.2,0.4c0.1,0.2,0.1,0.3,0.1,0.5C64.4,64.9,64.4,65.1,64.3,65.2"/>
	<polygon class="st1" points="69,65.8 67.4,63 66.7,63 66.7,66.4 67.2,66.4 67.2,63.6 68.8,66.4 69.5,66.4 69.5,63 69,63 	"/>
	<polygon class="st1" points="71.5,66.4 72,66.4 72,64.8 73.3,64.8 73.3,64.5 72,64.5 72,63.4 73.6,63.4 73.6,63 71.5,63 	"/>
	<path class="st1" d="M77.9,63.5c-0.1-0.2-0.3-0.3-0.5-0.4C77.1,63,76.9,63,76.6,63c-0.3,0-0.5,0-0.7,0.1c-0.2,0.1-0.4,0.2-0.5,0.4
		c-0.1,0.2-0.3,0.3-0.3,0.5c-0.1,0.2-0.1,0.4-0.1,0.7c0,0.2,0,0.5,0.1,0.7c0.1,0.2,0.2,0.4,0.3,0.5c0.1,0.2,0.3,0.3,0.5,0.4
		c0.2,0.1,0.5,0.1,0.7,0.1c0.3,0,0.5,0,0.7-0.1c0.2-0.1,0.4-0.2,0.5-0.4c0.1-0.2,0.3-0.3,0.3-0.5c0.1-0.2,0.1-0.4,0.1-0.7
		c0-0.2,0-0.5-0.1-0.7C78.1,63.8,78,63.7,77.9,63.5 M77.8,65.2c-0.1,0.2-0.1,0.3-0.2,0.4c-0.1,0.1-0.2,0.2-0.4,0.3
		C77,66,76.8,66,76.6,66c-0.2,0-0.4,0-0.5-0.1c-0.1-0.1-0.3-0.2-0.4-0.3c-0.1-0.1-0.2-0.3-0.2-0.4c-0.1-0.2-0.1-0.3-0.1-0.5
		c0-0.2,0-0.4,0.1-0.5c0.1-0.2,0.1-0.3,0.2-0.4c0.1-0.1,0.2-0.2,0.4-0.3c0.2-0.1,0.3-0.1,0.5-0.1c0.2,0,0.4,0,0.5,0.1
		c0.2,0.1,0.3,0.2,0.4,0.3c0.1,0.1,0.2,0.3,0.2,0.4c0.1,0.2,0.1,0.3,0.1,0.5C77.8,64.9,77.8,65.1,77.8,65.2"/>
	<path class="st1" d="M82.2,65.2c-0.1-0.1-0.1-0.1-0.2-0.2c-0.1-0.1-0.1-0.1-0.2-0.1c-0.1,0-0.1-0.1-0.2-0.1
		c0.3-0.1,0.5-0.2,0.7-0.3c0.1-0.1,0.2-0.3,0.2-0.6c0-0.1,0-0.3-0.1-0.4c-0.1-0.1-0.1-0.2-0.3-0.3c-0.1-0.1-0.2-0.1-0.4-0.2
		c-0.2,0-0.4-0.1-0.6-0.1c-0.2,0-0.4,0-0.5,0c-0.2,0-0.3,0-0.5,0v3.3h0.5v-1.5h0.1c0.3,0,0.5,0,0.7,0.1c0.2,0.1,0.3,0.3,0.4,0.5
		l0.5,0.9l0.5-0.2l-0.4-0.8C82.3,65.4,82.2,65.3,82.2,65.2 M81.2,64.5h-0.6v-1.1c0.1,0,0.2,0,0.3,0c0.1,0,0.2,0,0.3,0
		c0.3,0,0.5,0.1,0.6,0.2c0.1,0.1,0.2,0.2,0.2,0.4c0,0.2-0.1,0.3-0.2,0.4C81.7,64.5,81.5,64.5,81.2,64.5"/>
	<polygon class="st1" points="83.8,63.4 85,63.4 85,66.4 85.5,66.4 85.5,63.4 86.6,63.4 86.6,63 83.8,63 	"/>
	<path class="st1" d="M88.9,63l-1.4,3.2l0.4,0.2l0.4-0.9h1.7l0.4,1l0.5-0.2L89.4,63H88.9z M88.4,65.1l0.7-1.6l0.7,1.6H88.4z"/>
	<polygon class="st1" points="94.7,65.8 93,63 92.4,63 92.4,66.4 92.9,66.4 92.9,63.6 94.5,66.4 95.1,66.4 95.1,63 94.7,63 	"/>
	<path class="st2" d="M38,27h-1.5c-0.1,0-0.2,0.1-0.3,0.2l-2,4.6l-1.4,3.5l-1.4-3.5l-2-4.6c0-0.1-0.1-0.2-0.3-0.2h-1.5
		c-0.2,0-0.3,0.1-0.3,0.3v0.2c0,0,0,0.1,0,0.1l4.9,10.9c0,0.1,0.1,0.2,0.3,0.2h0.6c0.1,0,0.2-0.1,0.3-0.2l4.9-10.9c0,0,0-0.1,0-0.1
		v-0.2C38.3,27.2,38.1,27,38,27"/>
	<path class="st2" d="M25.7,36.2V31c0-0.1,0-0.2-0.2-0.3c-0.5-0.2-1.1-0.4-1.6-0.5c-0.6-0.1-1.1-0.2-1.7-0.2c-0.7,0-1.3,0.1-1.9,0.3
		c-0.6,0.2-1.1,0.5-1.5,0.8c-0.4,0.4-0.8,0.8-1,1.4c-0.2,0.4-0.3,0.9-0.4,1.5c0,0.1,0,0.3,0,0.3c0,0.5,0.1,1,0.2,1.5
		c0.2,0.5,0.4,1,0.7,1.4c0.3,0.4,0.8,0.7,1.2,1c0.5,0.2,1.1,0.4,1.7,0.4c0.7,0,1.3-0.1,1.9-0.4c0.3-0.2,0.6-0.4,0.9-0.7
		c0,0.1,0,0.1,0.1,0.2c0.1,0.3,0.3,0.5,0.5,0.6c0.2,0.1,0.5,0.2,0.8,0.2c0.1,0,0.1,0,0.2,0v-2.1C25.7,36.4,25.7,36.3,25.7,36.2
		 M23.8,34.3c0,0.4-0.1,0.8-0.2,1.1c-0.1,0.3-0.3,0.6-0.4,0.8c-0.2,0.2-0.4,0.4-0.7,0.5c-0.3,0.1-0.6,0.2-1,0.2
		c-0.4,0-0.7-0.1-1-0.2c-0.3-0.1-0.5-0.3-0.7-0.6c-0.2-0.2-0.3-0.5-0.4-0.8c-0.1-0.3-0.1-0.7-0.2-1h0c0-0.9,0.3-1.5,0.8-2
		c0.5-0.5,1.2-0.7,2-0.7c0.1,0,0.3,0,0.4,0c0.2,0,0.3,0,0.5,0.1c0.2,0,0.4,0.1,0.5,0.1c0.1,0,0.2,0.1,0.3,0.1c0,0,0,0,0,0
		c0,0,0,0,0,0V34.3z"/>
	<path class="st2" d="M85.6,36.2V31c0-0.1,0-0.2-0.2-0.3c-0.5-0.2-1.1-0.4-1.6-0.5c-0.6-0.1-1.1-0.2-1.7-0.2c-0.7,0-1.3,0.1-1.9,0.3
		c-0.6,0.2-1.1,0.5-1.5,0.8c-0.4,0.4-0.8,0.8-1,1.4c-0.2,0.4-0.3,0.9-0.4,1.5c0,0.1,0,0.3,0,0.3c0,0.5,0.1,1,0.2,1.5
		c0.2,0.5,0.4,1,0.7,1.4c0.3,0.4,0.8,0.7,1.2,1c0.5,0.2,1.1,0.4,1.7,0.4c0.7,0,1.3-0.1,1.9-0.4c0.3-0.2,0.6-0.4,0.9-0.7
		c0,0.1,0,0.1,0.1,0.2c0.1,0.3,0.3,0.5,0.5,0.6c0.2,0.1,0.5,0.2,0.8,0.2c0.1,0,0.1,0,0.2,0v-2.1C85.6,36.4,85.6,36.3,85.6,36.2
		 M83.8,34.3c0,0.4-0.1,0.8-0.2,1.1c-0.1,0.3-0.3,0.6-0.4,0.8c-0.2,0.2-0.4,0.4-0.7,0.5c-0.3,0.1-0.6,0.2-1,0.2
		c-0.4,0-0.7-0.1-1-0.2c-0.3-0.1-0.5-0.3-0.7-0.6c-0.2-0.2-0.3-0.5-0.4-0.8c-0.1-0.3-0.1-0.7-0.2-1h0c0-0.9,0.3-1.5,0.8-2
		c0.5-0.5,1.2-0.7,2-0.7c0.1,0,0.3,0,0.4,0c0.2,0,0.3,0,0.5,0.1c0.2,0,0.4,0.1,0.5,0.1c0.1,0,0.2,0.1,0.3,0.1c0,0,0,0,0,0
		c0,0,0,0,0,0V34.3z"/>
	<path class="st2" d="M71.8,36.9c0-0.1,0-0.2,0-0.3v-2.9c0-0.5-0.1-1-0.2-1.4c-0.2-0.4-0.4-0.8-0.7-1.2c-0.3-0.3-0.7-0.6-1.1-0.8
		c-0.4-0.2-1-0.3-1.5-0.3c-0.6,0-1.2,0.1-1.8,0.4c-0.3,0.1-0.6,0.4-0.9,0.6c-0.1-0.3-0.3-0.6-0.6-0.7c-0.5-0.3-1.1-0.3-1.8-0.1
		c-0.1,0-0.2,0.1-0.2,0.3l0,0.8c0,0.1,0,0.2,0.1,0.2c0.1,0.1,0.1,0.1,0.2,0.1c0.1,0,0.2,0,0.3,0c0.1,0,0.2,0,0.2,0
		c0.1,0,0.1,0.1,0.1,0.1c0,0.1,0.1,0.2,0.1,0.4c0,0.2,0,0.4,0,0.7v5.6c0,0.2,0.1,0.3,0.3,0.3h1.3c0.2,0,0.3-0.1,0.3-0.3v-4.6
		c0-0.3,0.1-0.6,0.2-0.8c0.1-0.3,0.3-0.5,0.4-0.7c0.2-0.2,0.4-0.3,0.7-0.4c0.5-0.2,1.1-0.2,1.6,0c0.2,0.1,0.5,0.2,0.6,0.4
		c0.2,0.2,0.3,0.4,0.4,0.6c0.1,0.2,0.2,0.5,0.2,0.8v3c0,0.9,0.3,1.5,0.8,1.8c0.3,0.2,0.7,0.2,1.1,0.2c0,0,0.1,0,0.1,0V36.9z"/>
	<path class="st2" d="M57.6,36V31c0-0.1,0-0.2-0.2-0.3c-0.5-0.2-1.1-0.4-1.6-0.5c-0.6-0.1-1.1-0.2-1.7-0.2c-0.7,0-1.3,0.1-1.9,0.3
		c-0.6,0.2-1.1,0.5-1.5,0.8c-0.4,0.4-0.8,0.8-1,1.4c-0.2,0.4-0.3,0.9-0.4,1.5c0,0.1,0,0.3,0,0.3c0,0.5,0.1,1,0.2,1.5
		c0.2,0.5,0.4,1,0.7,1.4c0.3,0.4,0.8,0.7,1.2,1c0.5,0.2,1.1,0.4,1.7,0.4c0.7,0,1.3-0.1,1.9-0.4c0.3-0.1,0.5-0.3,0.7-0.5v0.8
		c0,0.3,0,0.6-0.1,0.9c0,0.1,0,0.1-0.1,0.2c-0.1,0.3-0.3,0.5-0.5,0.7c-0.2,0.2-0.5,0.3-0.7,0.4c-0.7,0.2-1.6,0.2-2.4-0.1
		c-0.5-0.1-0.9-0.3-1.4-0.5c-0.1-0.1-0.2,0-0.2,0.1L50,41.1l0,0.1c-0.1,0.1-0.1,0.2,0,0.3c0,0,0.2,0.1,0.5,0.2
		c0.5,0.2,0.9,0.4,1.4,0.5c0.6,0.1,1.2,0.2,1.8,0.2c0.5,0,1-0.1,1.5-0.2c0.3-0.1,0.5-0.2,0.8-0.3c0.2-0.1,0.4-0.2,0.5-0.4
		c0.1-0.1,0.2-0.2,0.3-0.3c0.2-0.3,0.4-0.6,0.6-1c0.2-0.5,0.3-1.1,0.3-1.8L57.6,36C57.6,36,57.6,36,57.6,36 M55.8,34.2
		c0,0.4-0.1,0.8-0.2,1.1c-0.1,0.3-0.3,0.6-0.4,0.8c-0.2,0.2-0.4,0.4-0.7,0.5c-0.3,0.1-0.6,0.2-1,0.2c-0.4,0-0.7-0.1-1-0.2
		c-0.3-0.1-0.5-0.3-0.7-0.6c-0.2-0.2-0.3-0.5-0.4-0.8c-0.1-0.3-0.1-0.7-0.2-1l0,0c0-0.9,0.3-1.5,0.8-2c0.5-0.5,1.2-0.7,2-0.7
		c0.1,0,0.3,0,0.4,0c0.2,0,0.3,0,0.5,0.1c0.2,0,0.4,0.1,0.5,0.1c0.1,0,0.2,0.1,0.3,0.1c0,0,0,0,0.1-0.1c0,0,0,0-0.1,0.1c0,0,0,0,0,0
		V34.2z"/>
	<path class="st2" d="M57.2,13.2c0.1-0.3,0.1-0.5,0-0.8c-0.1-0.3-0.5-0.5-0.9-0.5c-0.1,0-0.2,0-0.3,0c-1.2,0.1-2.4,0.8-3,2.3
		c0,0-0.6,1.7-0.4,2.3c0.1,0.2,0.8-0.2,1.7-0.7C55.5,15,56.8,14,57.2,13.2"/>
	<path class="st2" d="M43.8,16.4c0.4-0.1,0-1.9,0-1.9c-0.3-1.5-1.2-2.8-2.3-3.2c-0.5-0.1-0.9,0-1.1,0.3c-0.2,0.3-0.3,0.9,0.2,1.6
		C41,13.9,43.4,16.5,43.8,16.4"/>
	<path class="st2" d="M37.5,16.2c-0.2,0-0.3,0-0.4,0.1c-0.3,0.1-0.4,0.2-0.4,0.4c0,0.2,0.3,0.5,0.8,0.8c0,0,2.5,1.4,3.1,1.4
		c0.1,0,0.1,0,0.1,0c0.1-0.3-0.8-1.4-0.8-1.4C39.2,16.7,38.3,16.2,37.5,16.2"/>
	<path class="st2" d="M60.5,17.7c-0.3-0.3-0.8-0.4-1.3-0.4c-2,0-3.6,1.8-4,2.6c-0.1,0.2,0.6,0.2,1.1,0.1c0,0,2.4-0.4,3.4-0.7
		c1-0.3,1.1-0.4,1.2-0.7C61,18.2,60.9,17.9,60.5,17.7"/>
	<path class="st2" d="M48.3,15.2c0.5,0,1.4-2,1.4-2c0.5-1,0.6-2.5,0.1-3.4c-0.2-0.4-0.6-0.7-1-0.7c-0.3,0-0.7,0.2-1,0.5
		c-0.6,0.8-0.7,2.1-0.5,3.4C47.4,13.1,47.8,15.2,48.3,15.2"/>
	<path class="st2" d="M47.7,16.8c-0.5,0-0.9,0-1.3,0.1c-2.1,0.6-3.7,2-4.3,3.8c-0.1,0.2-0.1,0.5-0.1,0.7c0,0,0,0,0,0
		c1.2-0.3,2.6-0.5,4-0.4c3.3,0.3,5.9,1.8,6.8,3.8c0.5-0.8,0.7-1.7,0.7-2.6v0c0-0.1,0-0.2,0-0.2C53.4,19,50.8,16.8,47.7,16.8"/>
	<g>
		<g>
			<defs>
				<rect id="SVGID_1_" x="42" y="19.4" width="11.6" height="5.3"/>
			</defs>
			<clipPath id="SVGID_2_">
				<use xlink:href="#SVGID_1_"  style="overflow:visible;"/>
			</clipPath>
			<g class="st3">
				<defs>
					<path id="SVGID_3_" d="M47.4,19.4c-0.7,0-1.3,0.1-2,0.2c-1.2,0.3-2.3,0.8-3.2,1.5c-0.1,0-0.2,0.2-0.2,0.2v0v0c0,0,0,0,0,0
						c1.2-0.3,2.6-0.5,4-0.4c3.3,0.3,5.9,1.8,6.8,3.8c0.1-0.1,0.1-0.2,0.1-0.3c0,0,0-0.1,0.1-0.1c0-0.1,0.1-0.1,0.1-0.2
						c0,0,0-0.1,0.1-0.1c0,0,0-0.1,0.1-0.1c0-0.1,0-0.1,0.1-0.2c0,0,0-0.1,0-0.1c0.1-0.4,0.2-0.9,0.2-1.4v0
						C52.3,20.6,49.9,19.4,47.4,19.4"/>
				</defs>
				<clipPath id="SVGID_4_">
					<use xlink:href="#SVGID_3_"  style="overflow:visible;"/>
				</clipPath>
				<defs>
					<filter id="Adobe_OpacityMaskFilter" filterUnits="userSpaceOnUse" x="42" y="19.4" width="11.6" height="5.3">
						<feColorMatrix  type="matrix" values="1 0 0 0 0  0 1 0 0 0  0 0 1 0 0  0 0 0 1 0"/>
					</filter>
				</defs>
				<mask maskUnits="userSpaceOnUse" x="42" y="19.4" width="11.6" height="5.3" id="SVGID_5_">
					<g class="st4">
						
							<linearGradient id="SVGID_6_" gradientUnits="userSpaceOnUse" x1="-239.2556" y1="455.2662" x2="-238.8485" y2="455.2662" gradientTransform="matrix(28.4912 0 0 -28.4912 6858.6504 12993.1787)">
							<stop  offset="0" style="stop-color:#FFFFFF"/>
							<stop  offset="0.1" style="stop-color:#FFFFFF"/>
							<stop  offset="0.4775" style="stop-color:#999999"/>
							<stop  offset="0.8383" style="stop-color:#3D3D3D"/>
							<stop  offset="1" style="stop-color:#1A1A1A"/>
						</linearGradient>
						<rect x="42" y="19.4" class="st5" width="11.6" height="5.3"/>
					</g>
				</mask>
				
					<linearGradient id="SVGID_7_" gradientUnits="userSpaceOnUse" x1="-239.2556" y1="455.2662" x2="-238.8485" y2="455.2662" gradientTransform="matrix(28.4912 0 0 -28.4912 6858.6504 12993.1787)">
					<stop  offset="0" style="stop-color:#EC6EA5"/>
					<stop  offset="0.1" style="stop-color:#EC6EA5"/>
					<stop  offset="1" style="stop-color:#EC6EA5"/>
				</linearGradient>
				<rect x="42" y="19.4" class="st6" width="11.6" height="5.3"/>
			</g>
		</g>
	</g>
	<path class="st2" d="M17.1,37.7L17.1,37.7l0-0.6c0-0.2-0.1-0.3-0.3-0.3h-4.9v-9.5c0-0.2-0.1-0.3-0.3-0.3h-1.4
		c-0.2,0-0.3,0.1-0.3,0.3v11c0,0.2,0.1,0.3,0.3,0.3h6.6c0,0,0,0,0,0h0.2V37.7z"/>
	<path class="st2" d="M41,27.3c-0.2-0.2-0.5-0.3-0.8-0.3c-0.3,0-0.6,0.1-0.8,0.3c-0.2,0.2-0.3,0.4-0.4,0.6c-0.1,0.3,0,0.6,0.2,0.8
		c0.2,0.2,0.5,0.3,0.8,0.3c0.3,0,0.6-0.1,0.8-0.3c0.2-0.2,0.3-0.4,0.4-0.6C41.3,27.8,41.2,27.5,41,27.3"/>
	<path class="st2" d="M41.1,30.1C41.1,30.1,41,30.1,41.1,30.1l-0.1,0h0c-0.1,0-0.2,0-0.3,0c-0.3,0-0.6,0.1-0.8,0.2
		c-0.2,0.1-0.4,0.2-0.5,0.4c0,0,0,0,0,0.1c-0.1,0.2-0.1,0.3-0.1,0.5c0,0.3,0,0.7,0,1.2c0,2.2,0,5.8,0,5.8c0,0.2,0.1,0.3,0.3,0.3h1.6
		L41.1,30.1z"/>
	<path class="st2" d="M61.4,27.3c-0.2-0.2-0.5-0.3-0.8-0.3c-0.3,0-0.6,0.1-0.8,0.3c-0.2,0.2-0.3,0.4-0.4,0.6c-0.1,0.3,0,0.6,0.2,0.8
		c0.2,0.2,0.5,0.3,0.8,0.3c0.3,0,0.6-0.1,0.8-0.3c0.2-0.2,0.3-0.4,0.4-0.6C61.7,27.8,61.6,27.5,61.4,27.3"/>
	<path class="st2" d="M61.5,30.1C61.4,30.1,61.4,30.1,61.5,30.1l-0.1,0h0c-0.1,0-0.2,0-0.3,0c-0.3,0-0.6,0.1-0.8,0.2
		c-0.2,0.1-0.4,0.2-0.5,0.4c0,0,0,0,0,0.1c-0.1,0.2-0.1,0.3-0.1,0.5c0,0.3,0,0.7,0,1.2c0,2.2,0,5.8,0,5.8c0,0.2,0.1,0.3,0.3,0.3h1.6
		L61.5,30.1z"/>
	<path class="st2" d="M75.7,27.3c-0.2-0.2-0.5-0.3-0.8-0.3c-0.3,0-0.6,0.1-0.8,0.3c-0.2,0.2-0.3,0.4-0.4,0.6c-0.1,0.3,0,0.6,0.2,0.8
		c0.2,0.2,0.5,0.3,0.8,0.3c0.3,0,0.6-0.1,0.8-0.3c0.2-0.2,0.3-0.4,0.4-0.6C75.9,27.8,75.8,27.5,75.7,27.3"/>
	<path class="st2" d="M75.7,30.1C75.7,30.1,75.7,30.1,75.7,30.1l-0.1,0h0c-0.1,0-0.2,0-0.3,0c-0.3,0-0.6,0.1-0.8,0.2
		c-0.2,0.1-0.4,0.2-0.5,0.4c0,0,0,0,0,0.1c-0.1,0.2-0.1,0.3-0.1,0.5c0,0.3,0,0.7,0,1.2c0,2.2,0,5.8,0,5.8c0,0.2,0.1,0.3,0.3,0.3h1.6
		L75.7,30.1z"/>
	<path class="st2" d="M49.5,30.5c0,0-0.8-0.5-1.8-0.5c-0.6,0-1.1,0.1-1.6,0.3c-0.3,0.1-0.5,0.3-0.7,0.5c0-0.1-0.1-0.2-0.1-0.2
		c-0.2-0.2-0.4-0.4-0.6-0.5c-0.2-0.1-0.5-0.1-0.8-0.1c-0.3,0-0.6,0-0.9,0.1c-0.1,0-0.2,0.1-0.2,0.3l0,0.8c0,0.1,0,0.2,0.1,0.2
		c0.1,0.1,0.1,0.1,0.2,0.1c0.1,0,0.1,0,0.2,0c0.1,0,0.2,0,0.2,0c0.1,0,0.1,0.1,0.1,0.1c0,0.1,0.1,0.1,0.1,0.2c0,0.1,0,0.3,0,0.5v5.9
		c0,0.2,0.1,0.3,0.3,0.3h0.6h1v-0.2c0,0,0,0,0,0v-4.8c0-0.3,0.1-0.5,0.2-0.8c0.1-0.2,0.3-0.4,0.4-0.6c0.2-0.2,0.4-0.3,0.6-0.4
		c0.2-0.1,0.5-0.1,0.7-0.1c0.4,0,0.7,0,1.1,0.2c0,0,0,0,0,0c0.1,0,0.2,0.1,0.2,0c0.1,0,0.2-0.1,0.2-0.2l0.5-1
		C49.5,30.7,49.6,30.6,49.5,30.5"/>
</g>
</svg>
