<?xml version="1.0" encoding="utf-8"?>
<!-- Generator: Adobe Illustrator 15.0.0, SVG Export Plug-In . SVG Version: 6.00 Build 0)  -->
<!DOCTYPE svg PUBLIC "-//W3C//DTD SVG 1.1//EN" "http://www.w3.org/Graphics/SVG/1.1/DTD/svg11.dtd">
<svg version="1.1" id="Layer_1" xmlns="http://www.w3.org/2000/svg" xmlns:xlink="http://www.w3.org/1999/xlink" x="0px" y="0px"
	 width="200px" height="61.974px" viewBox="9.473 2.943 200 61.974" enable-background="new 9.473 2.943 200 61.974"
	 xml:space="preserve">
<g>
	<g>
		<g>
			<path fill="#003A6F" d="M74.437,2.986h41.84v11H102.24v33.545H88.474V13.986H74.437V2.986z"/>
			<path fill="#003A6F" d="M121.397,2.986h22.881c4.982,0,8.716,1.184,11.197,3.555c2.482,2.371,3.723,5.743,3.723,10.118
				c0,4.499-1.352,8.011-4.055,10.544c-2.706,2.532-6.834,3.8-12.385,3.8h-7.536v16.528h-13.825V2.986z M135.222,21.977h3.378
				c2.649,0,4.512-0.46,5.588-1.382c1.074-0.922,1.61-2.102,1.61-3.54c0-1.397-0.466-2.584-1.397-3.555
				c-0.934-0.973-2.686-1.459-5.258-1.459h-3.921V21.977z"/>
			<path fill="#003A6F" d="M165.006,47.531V2.986h22.938c4.257,0,7.506,0.365,9.755,1.094s4.062,2.081,5.44,4.057
				c1.377,1.975,2.064,4.379,2.064,7.215c0,2.473-0.527,4.604-1.581,6.398c-1.053,1.793-2.502,3.246-4.347,4.359
				c-1.175,0.709-2.787,1.296-4.833,1.762c1.638,0.549,2.833,1.095,3.584,1.64c0.504,0.367,1.236,1.149,2.201,2.344
				c0.96,1.197,1.604,2.121,1.927,2.768l6.663,12.909h-15.551l-7.357-13.613c-0.932-1.762-1.761-2.907-2.491-3.435
				c-0.995-0.688-2.116-1.034-3.372-1.034h-1.217v18.081H165.006z M178.829,21.035h5.802c0.63,0,1.847-0.201,3.648-0.61
				c0.913-0.181,1.657-0.645,2.234-1.395c0.574-0.75,0.866-1.611,0.866-2.583c0-1.438-0.456-2.542-1.37-3.313
				c-0.909-0.769-2.624-1.154-5.133-1.154h-6.048V21.035z"/>
		</g>
		<g>
			<path fill="#003A6F" d="M76.908,64.76v-8.121h-2.488v-1.085h5.987v1.085h-2.501v8.121H76.908z"/>
			<path fill="#003A6F" d="M83.854,62.612l0.955,0.145c-0.159,0.711-0.447,1.247-0.864,1.61c-0.416,0.362-0.932,0.543-1.547,0.543
				c-0.775,0-1.402-0.295-1.882-0.883c-0.479-0.587-0.718-1.436-0.718-2.547c0-1.15,0.241-2.028,0.726-2.634
				c0.483-0.604,1.096-0.907,1.837-0.907c0.706,0,1.297,0.297,1.77,0.891c0.474,0.596,0.711,1.455,0.711,2.582l-0.007,0.302h-4.083
				c0.039,0.749,0.212,1.313,0.522,1.695c0.311,0.382,0.687,0.572,1.13,0.572C83.098,63.981,83.583,63.525,83.854,62.612z
				 M80.808,60.783h3.053c-0.043-0.577-0.166-1.008-0.371-1.293c-0.297-0.415-0.677-0.622-1.137-0.622
				c-0.413,0-0.768,0.173-1.062,0.519C80.999,59.732,80.839,60.198,80.808,60.783z"/>
			<path fill="#003A6F" d="M85.984,64.76v-6.67h0.836v1.012c0.214-0.469,0.409-0.78,0.586-0.934
				c0.179-0.153,0.378-0.229,0.601-0.229c0.31,0,0.625,0.121,0.948,0.363l-0.313,1.051c-0.23-0.164-0.455-0.247-0.674-0.247
				c-0.196,0-0.376,0.07-0.538,0.207c-0.164,0.14-0.28,0.331-0.346,0.579c-0.118,0.432-0.177,0.89-0.177,1.375v3.492H85.984z"/>
			<path fill="#003A6F" d="M89.5,64.76v-6.67h0.831v0.928c0.184-0.344,0.419-0.611,0.708-0.797c0.288-0.188,0.604-0.281,0.946-0.281
				c0.385,0,0.711,0.099,0.977,0.296c0.266,0.198,0.453,0.486,0.567,0.866c0.219-0.388,0.469-0.679,0.754-0.871
				c0.283-0.194,0.597-0.291,0.941-0.291c0.526,0,0.939,0.177,1.242,0.533c0.301,0.355,0.455,0.926,0.455,1.709v4.578h-0.923v-4.206
				c0-0.479-0.035-0.817-0.104-1.016c-0.07-0.199-0.182-0.353-0.339-0.463c-0.155-0.108-0.33-0.162-0.523-0.162
				c-0.4,0-0.726,0.158-0.979,0.474c-0.253,0.317-0.378,0.815-0.378,1.494v3.879h-0.925v-4.338c0-0.554-0.084-0.943-0.253-1.17
				c-0.171-0.227-0.404-0.339-0.7-0.339c-0.424,0-0.757,0.169-1.002,0.512c-0.246,0.342-0.367,0.965-0.367,1.871v3.464H89.5z"/>
			<path fill="#003A6F" d="M98.281,56.852v-1.298h0.923v1.298H98.281z M98.281,64.76v-6.67h0.923v6.67H98.281z"/>
			<path fill="#003A6F" d="M100.623,64.76v-6.67h0.836v0.942c0.202-0.368,0.446-0.641,0.738-0.821
				c0.289-0.183,0.622-0.271,0.998-0.271c0.294,0,0.565,0.057,0.813,0.173c0.248,0.114,0.449,0.265,0.603,0.451
				c0.151,0.188,0.266,0.43,0.342,0.726c0.075,0.298,0.112,0.754,0.112,1.369v4.102h-0.923v-4.062c0-0.491-0.041-0.849-0.126-1.075
				c-0.084-0.226-0.214-0.402-0.392-0.526c-0.178-0.123-0.383-0.184-0.619-0.184c-0.443,0-0.798,0.166-1.062,0.497
				c-0.264,0.33-0.396,0.898-0.396,1.703v3.646H100.623z"/>
			<path fill="#003A6F" d="M110.052,63.937c-0.31,0.323-0.633,0.566-0.966,0.729c-0.335,0.162-0.684,0.244-1.044,0.244
				c-0.568,0-1.023-0.172-1.362-0.515c-0.34-0.343-0.508-0.807-0.508-1.388c0-0.385,0.079-0.727,0.237-1.024
				c0.16-0.298,0.378-0.529,0.654-0.696c0.276-0.168,0.695-0.291,1.256-0.372c0.752-0.11,1.306-0.242,1.657-0.396l0.006-0.288
				c0-0.456-0.083-0.776-0.245-0.961c-0.23-0.267-0.584-0.402-1.062-0.402c-0.432,0-0.754,0.09-0.966,0.269
				c-0.214,0.179-0.371,0.515-0.471,1.007l-0.912-0.151c0.13-0.716,0.394-1.237,0.79-1.564c0.396-0.326,0.96-0.488,1.698-0.488
				c0.574,0,1.023,0.107,1.351,0.322c0.326,0.216,0.534,0.483,0.619,0.802c0.085,0.317,0.128,0.783,0.128,1.395v1.508
				c0,1.055,0.02,1.72,0.06,1.994c0.04,0.272,0.119,0.54,0.236,0.8h-0.968C110.144,64.53,110.082,64.255,110.052,63.937z
				 M109.977,61.412c-0.339,0.167-0.843,0.312-1.515,0.427c-0.389,0.067-0.66,0.144-0.815,0.229
				c-0.156,0.087-0.276,0.208-0.361,0.364c-0.085,0.157-0.129,0.338-0.129,0.544c0,0.317,0.098,0.573,0.294,0.762
				c0.198,0.191,0.469,0.287,0.818,0.287c0.33,0,0.631-0.086,0.9-0.258c0.271-0.172,0.472-0.401,0.606-0.688
				c0.134-0.286,0.201-0.704,0.201-1.253V61.412z"/>
			<path fill="#003A6F" d="M112.325,64.76v-9.206h0.922v9.206H112.325z"/>
			<path fill="#003A6F" d="M117.758,64.76v-9.206h2.845c0.67,0,1.164,0.057,1.483,0.174c0.435,0.158,0.781,0.455,1.042,0.886
				c0.258,0.432,0.388,0.961,0.388,1.59c0,0.829-0.211,1.504-0.634,2.028c-0.423,0.523-1.153,0.786-2.19,0.786h-1.936v3.742H117.758
				z M118.756,59.93h1.953c0.615,0,1.066-0.139,1.352-0.418c0.283-0.278,0.426-0.697,0.426-1.259c0-0.364-0.07-0.676-0.211-0.936
				c-0.139-0.26-0.311-0.438-0.508-0.534c-0.199-0.097-0.558-0.145-1.076-0.145h-1.936V59.93z"/>
			<path fill="#003A6F" d="M128.246,64.76V63.78c-0.214,0.375-0.465,0.659-0.754,0.847c-0.289,0.189-0.616,0.283-0.98,0.283
				c-0.431,0-0.8-0.116-1.104-0.348c-0.307-0.233-0.511-0.527-0.613-0.882c-0.102-0.357-0.153-0.843-0.153-1.459V58.09h0.924v3.699
				c0,0.686,0.034,1.146,0.103,1.377c0.07,0.234,0.196,0.419,0.383,0.56c0.187,0.142,0.398,0.211,0.639,0.211
				c0.444,0,0.808-0.182,1.093-0.547c0.242-0.313,0.364-0.89,0.364-1.728V58.09h0.93v6.67H128.246z"/>
			<path fill="#003A6F" d="M134.269,62.612l0.955,0.145c-0.159,0.711-0.447,1.247-0.862,1.61c-0.418,0.362-0.934,0.543-1.549,0.543
				c-0.775,0-1.403-0.295-1.882-0.883c-0.479-0.587-0.719-1.436-0.719-2.547c0-1.15,0.24-2.028,0.726-2.634
				c0.482-0.604,1.097-0.907,1.838-0.907c0.706,0,1.297,0.297,1.771,0.891c0.473,0.596,0.709,1.455,0.709,2.582l-0.007,0.302h-4.083
				c0.039,0.749,0.212,1.313,0.521,1.695c0.311,0.382,0.686,0.572,1.13,0.572C133.513,63.981,133.998,63.525,134.269,62.612z
				 M131.223,60.783h3.053c-0.043-0.577-0.166-1.008-0.37-1.293c-0.298-0.415-0.678-0.622-1.137-0.622
				c-0.414,0-0.769,0.173-1.063,0.519C131.413,59.732,131.253,60.198,131.223,60.783z"/>
			<path fill="#003A6F" d="M136.399,64.76v-6.67h0.836v1.012c0.212-0.469,0.408-0.78,0.586-0.934s0.378-0.229,0.6-0.229
				c0.31,0,0.627,0.121,0.949,0.363l-0.313,1.051c-0.231-0.164-0.455-0.247-0.672-0.247c-0.198,0-0.378,0.07-0.542,0.207
				c-0.162,0.14-0.277,0.331-0.344,0.579c-0.117,0.432-0.177,0.89-0.177,1.375v3.492H136.399z"/>
			<path fill="#003A6F" d="M141.97,63.748l0.126,0.999c-0.257,0.066-0.486,0.1-0.691,0.1c-0.322,0-0.581-0.063-0.778-0.189
				c-0.198-0.129-0.332-0.304-0.404-0.525c-0.075-0.222-0.11-0.664-0.11-1.325V58.97h-0.68v-0.88h0.68v-1.652l0.923-0.678v2.33
				h0.936v0.88h-0.936v3.899c0,0.36,0.026,0.593,0.081,0.697c0.079,0.151,0.229,0.226,0.446,0.226
				C141.666,63.792,141.802,63.778,141.97,63.748z"/>
			<path fill="#003A6F" d="M142.49,61.425c0-1.151,0.242-2.021,0.725-2.607c0.483-0.586,1.097-0.878,1.838-0.878
				c0.729,0,1.339,0.292,1.828,0.878c0.491,0.587,0.734,1.434,0.734,2.538c0,1.198-0.24,2.089-0.722,2.676
				c-0.482,0.586-1.096,0.879-1.841,0.879c-0.732,0-1.344-0.295-1.831-0.883C142.735,63.44,142.49,62.572,142.49,61.425z
				 M143.439,61.422c0,0.863,0.156,1.505,0.472,1.927c0.313,0.422,0.704,0.633,1.167,0.633c0.438,0,0.81-0.213,1.121-0.639
				c0.313-0.426,0.47-1.066,0.47-1.921c0-0.859-0.157-1.501-0.473-1.921c-0.314-0.422-0.702-0.633-1.167-0.633
				c-0.44,0-0.815,0.212-1.125,0.634C143.594,59.926,143.439,60.566,143.439,61.422z"/>
			<path fill="#003A6F" d="M151.769,64.76v-9.206h3.345c0.701,0,1.218,0.085,1.549,0.256c0.333,0.172,0.606,0.457,0.82,0.856
				c0.213,0.4,0.32,0.864,0.32,1.391c0,0.694-0.182,1.257-0.543,1.688c-0.362,0.432-0.888,0.706-1.579,0.821
				c0.279,0.17,0.493,0.341,0.64,0.513c0.297,0.353,0.56,0.744,0.786,1.175l1.318,2.506h-1.257l-1.007-1.914
				c-0.39-0.75-0.685-1.254-0.884-1.515c-0.198-0.261-0.391-0.434-0.575-0.526c-0.188-0.088-0.447-0.134-0.783-0.134h-1.152v4.089
				H151.769z M152.767,59.616h2.147c0.469,0,0.824-0.057,1.067-0.17c0.242-0.112,0.436-0.291,0.578-0.533
				c0.143-0.245,0.213-0.526,0.213-0.849c0-0.466-0.135-0.83-0.408-1.097c-0.272-0.266-0.677-0.399-1.211-0.399h-2.387V59.616z"/>
			<path fill="#003A6F" d="M158.903,61.425c0-1.151,0.242-2.021,0.726-2.607c0.482-0.586,1.096-0.878,1.838-0.878
				c0.728,0,1.336,0.292,1.827,0.878c0.489,0.587,0.736,1.434,0.736,2.538c0,1.198-0.242,2.089-0.723,2.676
				c-0.483,0.586-1.097,0.879-1.841,0.879c-0.734,0-1.345-0.295-1.832-0.883C159.147,63.44,158.903,62.572,158.903,61.425z
				 M159.851,61.422c0,0.863,0.157,1.505,0.471,1.927c0.315,0.422,0.704,0.633,1.17,0.633c0.434,0,0.809-0.213,1.121-0.639
				c0.311-0.426,0.466-1.066,0.466-1.921c0-0.859-0.155-1.501-0.47-1.921c-0.314-0.422-0.704-0.633-1.168-0.633
				c-0.44,0-0.814,0.212-1.124,0.634C160.006,59.926,159.851,60.566,159.851,61.422z"/>
			<path fill="#003A6F" d="M164.763,62.762l0.924-0.174c0.053,0.47,0.202,0.82,0.445,1.05c0.24,0.228,0.563,0.344,0.964,0.344
				c0.401,0,0.711-0.101,0.93-0.3c0.22-0.198,0.33-0.45,0.33-0.756c0-0.264-0.095-0.469-0.283-0.615
				c-0.13-0.101-0.443-0.227-0.941-0.377c-0.721-0.221-1.203-0.411-1.444-0.565c-0.243-0.155-0.432-0.361-0.565-0.621
				c-0.134-0.261-0.202-0.555-0.202-0.887c0-0.568,0.183-1.032,0.546-1.388c0.365-0.356,0.869-0.533,1.516-0.533
				c0.404,0,0.762,0.073,1.07,0.22c0.307,0.146,0.542,0.344,0.706,0.59c0.164,0.247,0.276,0.601,0.338,1.062l-0.903,0.149
				c-0.084-0.728-0.479-1.092-1.188-1.092c-0.402,0-0.702,0.08-0.897,0.24c-0.198,0.162-0.296,0.368-0.296,0.617
				c0,0.245,0.095,0.44,0.283,0.581c0.114,0.084,0.449,0.217,1.008,0.4c0.768,0.244,1.264,0.438,1.487,0.583
				c0.227,0.145,0.401,0.341,0.527,0.592c0.125,0.249,0.188,0.546,0.188,0.889c0,0.639-0.203,1.153-0.606,1.548
				c-0.404,0.395-0.957,0.592-1.655,0.592C165.732,64.91,164.972,64.194,164.763,62.762z"/>
			<path fill="#003A6F" d="M173.957,63.937c-0.311,0.323-0.631,0.566-0.968,0.729c-0.333,0.162-0.681,0.244-1.041,0.244
				c-0.57,0-1.024-0.172-1.363-0.515s-0.509-0.807-0.509-1.388c0-0.385,0.079-0.727,0.24-1.024c0.158-0.298,0.376-0.529,0.651-0.696
				c0.276-0.168,0.695-0.291,1.255-0.372c0.754-0.11,1.309-0.242,1.659-0.396l0.007-0.288c0-0.456-0.081-0.776-0.245-0.961
				c-0.229-0.267-0.585-0.402-1.061-0.402c-0.431,0-0.754,0.09-0.968,0.269s-0.371,0.515-0.471,1.007l-0.913-0.151
				c0.131-0.716,0.396-1.237,0.791-1.564c0.395-0.326,0.96-0.488,1.698-0.488c0.574,0,1.024,0.107,1.351,0.322
				c0.326,0.216,0.532,0.483,0.618,0.802c0.086,0.317,0.129,0.783,0.129,1.395v1.508c0,1.055,0.02,1.72,0.06,1.994
				c0.04,0.272,0.119,0.54,0.236,0.8h-0.968C174.05,64.53,173.988,64.255,173.957,63.937z M173.882,61.412
				c-0.338,0.167-0.843,0.312-1.515,0.427c-0.389,0.067-0.659,0.144-0.814,0.229c-0.155,0.087-0.276,0.208-0.361,0.364
				c-0.086,0.157-0.129,0.338-0.129,0.544c0,0.317,0.099,0.573,0.294,0.762c0.196,0.191,0.471,0.287,0.819,0.287
				c0.329,0,0.63-0.086,0.899-0.258c0.271-0.172,0.473-0.401,0.605-0.688c0.136-0.286,0.201-0.704,0.201-1.253V61.412z"/>
			<path fill="#003A6F" d="M176.264,64.76v-6.67h0.836v1.012c0.212-0.469,0.408-0.78,0.586-0.934s0.376-0.229,0.599-0.229
				c0.311,0,0.626,0.121,0.948,0.363l-0.313,1.051c-0.23-0.164-0.454-0.247-0.673-0.247c-0.195,0-0.377,0.07-0.539,0.207
				c-0.164,0.14-0.278,0.331-0.346,0.579c-0.117,0.432-0.175,0.89-0.175,1.375v3.492H176.264z"/>
			<path fill="#003A6F" d="M179.774,56.852v-1.298h0.924v1.298H179.774z M179.774,64.76v-6.67h0.924v6.67H179.774z"/>
			<path fill="#003A6F" d="M181.765,61.425c0-1.151,0.241-2.021,0.726-2.607c0.483-0.586,1.096-0.878,1.838-0.878
				c0.727,0,1.337,0.292,1.826,0.878c0.491,0.587,0.734,1.434,0.734,2.538c0,1.198-0.24,2.089-0.722,2.676
				c-0.48,0.586-1.094,0.879-1.839,0.879c-0.734,0-1.344-0.295-1.832-0.883C182.008,63.44,181.765,62.572,181.765,61.425z
				 M182.714,61.422c0,0.863,0.156,1.505,0.47,1.927s0.704,0.633,1.168,0.633c0.437,0,0.811-0.213,1.122-0.639
				c0.311-0.426,0.468-1.066,0.468-1.921c0-0.859-0.157-1.501-0.471-1.921c-0.314-0.422-0.704-0.633-1.168-0.633
				c-0.439,0-0.816,0.212-1.125,0.634C182.869,59.926,182.714,60.566,182.714,61.422z"/>
			<path fill="#003A6F" d="M190.709,61.794l0.942-0.1c0.05,0.506,0.164,0.902,0.342,1.184c0.176,0.283,0.432,0.51,0.763,0.684
				c0.332,0.17,0.702,0.256,1.117,0.256c0.596,0,1.058-0.145,1.386-0.435c0.329-0.291,0.493-0.668,0.493-1.132
				c0-0.271-0.061-0.509-0.179-0.711c-0.121-0.204-0.301-0.369-0.541-0.498c-0.24-0.13-0.761-0.313-1.562-0.551
				c-0.711-0.211-1.217-0.423-1.519-0.638c-0.301-0.212-0.536-0.484-0.704-0.813c-0.167-0.328-0.251-0.7-0.251-1.113
				c0-0.747,0.24-1.355,0.723-1.829c0.482-0.473,1.131-0.709,1.947-0.709c0.56,0,1.051,0.11,1.472,0.332s0.747,0.541,0.98,0.956
				c0.232,0.414,0.356,0.899,0.375,1.461l-0.961,0.089c-0.052-0.598-0.23-1.043-0.539-1.331c-0.308-0.289-0.738-0.435-1.295-0.435
				c-0.564,0-0.998,0.127-1.296,0.38c-0.296,0.255-0.445,0.581-0.445,0.983c0,0.374,0.108,0.663,0.328,0.867
				c0.217,0.205,0.707,0.412,1.468,0.623c0.745,0.205,1.268,0.385,1.568,0.536c0.462,0.235,0.81,0.546,1.045,0.927
				c0.233,0.384,0.351,0.84,0.351,1.371c0,0.527-0.123,1.006-0.368,1.44c-0.248,0.433-0.585,0.762-1.009,0.988
				c-0.425,0.226-0.938,0.339-1.536,0.339c-0.934,0-1.678-0.279-2.231-0.841C191.017,63.515,190.731,62.754,190.709,61.794z"/>
			<path fill="#003A6F" d="M198.239,64.76v-1.287h1.056v1.287H198.239z"/>
			<path fill="#003A6F" d="M200.186,64.76l2.913-9.206h1.067l3.092,9.206h-1.143l-0.878-2.789h-3.178l-0.82,2.789H200.186z
				 M202.352,60.979h2.574l-0.787-2.552c-0.242-0.782-0.42-1.419-0.532-1.908c-0.098,0.591-0.235,1.176-0.414,1.759L202.352,60.979z
				"/>
			<path fill="#003A6F" d="M208.207,64.76v-1.287h1.055v1.287H208.207z"/>
		</g>
		<g>
			<g>
				<path fill="#003A6F" d="M47.157,7.689V5.328h-2.361V2.986H34.211v2.342h-2.358v2.362h-1.181v12.77
					c2.838-0.646,5.792-0.988,8.822-0.988c3.04,0,6,0.343,8.844,0.991V7.689H47.157z M39.497,11.212
					c-0.97,0-1.758-0.787-1.758-1.758c0-0.973,0.788-1.762,1.758-1.762s1.759,0.789,1.759,1.762
					C41.256,10.425,40.468,11.212,39.497,11.212z"/>
				<path fill="#998420" d="M69.552,34.792l-3.322-5.937c-0.187,0.643-0.39,1.308-0.604,1.976c-0.126-0.124-0.303-0.295-0.364-0.345
					c-6.839-6.115-15.867-9.833-25.768-9.833c-10.021,0-19.261,3.914-26.133,10.164c-0.211-0.656-0.411-1.31-0.596-1.952
					l-3.292,5.927L15,35.379c-0.279-0.69-0.553-1.409-0.817-2.14c1.667-1.49,7.26-5.665,13.767-6.526
					c7.943-1.274,8.597,2.182,8.597,4.59v31.578c0.966,0.708,1.954,1.383,2.961,2.036c1-0.648,1.98-1.328,2.94-2.03v-0.163v-31.42
					c0-2.409,0.651-5.865,8.598-4.59c5.919,0.784,11.061,4.258,13.195,5.999c0.154,0.12,0.403,0.365,0.562,0.523
					c-0.275,0.761-0.556,1.508-0.847,2.214L69.552,34.792z"/>
				<path fill="#003A6F" d="M43.629,60.508c8.947-7.06,15.75-16.324,19.79-26.946c-2.347-1.909-7.248-4.98-12.527-5.678
					c-1.101-0.177-2.074-0.264-2.917-0.264c-4.011,0-4.345,1.82-4.345,3.684V60.508L43.629,60.508z"/>
				<path fill="#003A6F" d="M35.366,60.508c-8.943-7.06-15.75-16.324-19.789-26.946c2.347-1.909,7.249-4.98,12.528-5.678
					c1.101-0.177,2.074-0.264,2.918-0.264c4.009,0,4.343,1.82,4.343,3.684V60.508L35.366,60.508z"/>
			</g>
		</g>
	</g>
</g>
</svg>
